<?xml version="1.0" standalone="no"?>
<!DOCTYPE svg PUBLIC "-//W3C//DTD SVG 20010904//EN"
 "http://www.w3.org/TR/2001/REC-SVG-20010904/DTD/svg10.dtd">
<svg version="1.0" xmlns="http://www.w3.org/2000/svg"
 width="1140.000000pt" height="1140.000000pt" viewBox="0 0 1140.000000 1140.000000"
 preserveAspectRatio="xMidYMid meet">
<metadata>
Created by potrace 1.14, written by Peter Selinger 2001-2017
</metadata>
<g transform="translate(0.000000,1140.000000) scale(0.100000,-0.100000)"
fill="#000000" stroke="none">
<path d="M3480 9029 c-52 -4 -139 -17 -192 -27 -105 -22 -288 -74 -288 -82 0
-3 35 -27 78 -55 154 -99 301 -271 359 -422 20 -53 26 -87 27 -155 1 -49 3
-88 5 -88 2 0 22 15 45 33 216 175 442 252 642 218 38 -7 128 -28 199 -49 108
-30 146 -36 225 -36 91 0 100 2 220 51 325 133 617 193 1007 209 l165 7 -63
40 c-95 60 -245 133 -345 166 -253 85 -461 91 -707 20 -56 -16 -144 -34 -195
-41 -161 -20 -253 -1 -604 126 -210 75 -379 100 -578 85z"/>
<path d="M2900 8981 c0 -5 9 -47 20 -93 53 -225 125 -648 156 -913 8 -77 17
-141 18 -142 1 -1 22 3 46 8 25 6 69 9 97 7 43 -2 52 0 48 12 -2 8 -39 130
-80 270 -82 275 -126 417 -211 688 -46 145 -58 172 -75 172 -10 0 -19 -4 -19
-9z"/>
<path d="M6014 8607 c223 -167 438 -372 586 -557 605 -756 840 -1891 625
-3012 -14 -73 -28 -141 -31 -150 -3 -11 24 1 86 38 502 303 1314 393 2145 239
204 -38 585 -139 585 -155 0 -17 -553 -134 -709 -150 -166 -17 -155 -12 -120
-68 32 -52 64 -180 55 -224 -7 -37 11 -37 78 1 60 34 350 163 521 231 300 119
904 332 1178 415 l88 27 -3 31 c-2 21 -8 32 -18 31 -8 -1 -132 -36 -275 -79
-367 -108 -778 -217 -785 -208 -3 5 -30 71 -59 148 -549 1441 -1398 2506
-2434 3050 -459 241 -941 376 -1462 409 l-80 5 29 -22z"/>
<path d="M4345 7474 c-141 -15 -260 -58 -333 -119 -115 -99 -173 -374 -142
-679 29 -293 118 -415 346 -473 100 -25 468 -25 568 0 230 58 318 182 347 487
20 214 -6 432 -67 557 -77 160 -220 222 -529 228 -82 2 -168 1 -190 -1z m191
-139 c78 -32 98 -154 92 -568 -4 -241 -8 -301 -22 -346 -34 -105 -104 -140
-166 -83 -53 47 -62 101 -67 428 -7 410 13 536 89 569 41 18 33 18 74 0z"/>
<path d="M1510 7441 c-11 -22 -13 -55 -4 -88 6 -22 11 -23 143 -25 l136 -3 5
-560 5 -560 224 -3 c173 -2 226 1 233 10 4 7 8 261 8 565 l0 552 138 3 137 3
3 48 c2 27 -2 55 -9 63 -10 12 -91 14 -510 14 -482 0 -499 -1 -509 -19z"/>
<path d="M2603 7449 c-18 -18 -19 -1219 -1 -1237 18 -18 441 -17 457 1 7 9 12
91 13 229 l3 216 125 -206 c69 -113 133 -216 143 -229 18 -23 20 -23 238 -23
173 0 221 3 225 13 2 7 -56 116 -131 241 -74 125 -135 231 -135 235 0 4 22 15
50 25 65 23 124 83 147 149 22 64 26 326 6 393 -28 91 -94 151 -198 180 -51
15 -125 18 -495 21 -343 4 -438 2 -447 -8z m599 -140 c36 -19 51 -76 56 -210
8 -224 -22 -289 -134 -289 l-54 0 0 261 0 262 56 -7 c31 -3 65 -11 76 -17z"/>
<path d="M5760 6213 c-195 -52 -1556 -423 -1915 -522 -137 -38 -251 -68 -253
-66 -2 2 2 64 8 140 6 75 8 140 5 146 -19 29 -227 -11 -334 -65 -77 -40 -77
-39 -53 -183 12 -70 20 -129 18 -131 -2 -1 -149 -38 -327 -81 -342 -83 -568
-141 -969 -248 -213 -56 -248 -69 -272 -94 -16 -16 -28 -39 -28 -51 0 -13 16
-71 36 -130 l35 -107 52 21 c247 98 558 212 907 333 254 88 583 195 588 191
12 -13 125 -1032 147 -1336 9 -118 18 -221 20 -228 3 -9 18 -12 42 -10 l38 3
7 90 c4 50 19 376 33 725 31 793 33 827 52 834 45 18 870 287 1548 506 429
139 781 253 783 255 2 2 2 14 0 27 l-3 24 -165 -43z"/>
<path d="M1020 5713 c-19 -10 -41 -30 -50 -46 -14 -26 -7 -52 219 -726 l233
-698 207 -6 c335 -10 597 -50 829 -126 225 -74 369 -156 498 -286 64 -64 90
-100 127 -172 25 -50 51 -117 58 -147 11 -52 14 -56 41 -56 38 0 42 15 24 93
-109 470 -657 758 -1548 813 l-106 7 -37 125 c-93 315 -155 711 -155 983 l0
78 53 5 c52 5 901 36 990 36 43 0 47 2 47 23 l0 24 -212 6 c-117 4 -305 14
-418 22 -264 20 -674 54 -725 60 -27 4 -51 -1 -75 -12z"/>
<path d="M4085 5399 c-64 -12 -215 -70 -242 -93 -33 -28 -39 -101 -24 -296 8
-110 70 -1162 71 -1202 0 -5 20 -8 45 -8 25 0 45 3 45 8 0 4 11 99 25 212 25
202 25 205 61 258 79 114 237 234 336 256 22 5 30 1 46 -27 29 -47 45 -149 37
-237 -4 -41 -20 -149 -36 -240 -16 -91 -29 -180 -29 -197 l0 -33 116 0 117 0
-7 133 c-4 72 -11 164 -16 202 -5 39 -9 118 -10 177 0 230 -53 328 -177 328
-75 0 -171 -52 -275 -150 -48 -44 -91 -80 -97 -80 -6 0 -8 12 -6 28 3 15 21
214 40 442 19 228 38 438 41 466 7 59 1 64 -61 53z"/>
<path d="M7251 4631 c-34 -32 -38 -43 -18 -60 11 -8 18 -6 32 9 63 69 109 -37
85 -195 -7 -44 -16 -120 -20 -170 -4 -49 -13 -135 -19 -190 -28 -242 -38 -400
-27 -407 6 -4 50 -8 98 -8 l86 0 -5 100 -6 100 95 0 c68 0 111 6 152 20 200
68 311 184 365 380 25 90 26 149 3 212 -40 110 -120 177 -236 199 -111 20
-262 -30 -347 -117 -24 -24 -48 -44 -55 -44 -7 0 -15 24 -19 58 -9 71 -27 117
-53 131 -37 20 -78 13 -111 -18z m559 -110 c48 -34 62 -76 56 -176 -8 -146
-65 -306 -140 -392 -43 -49 -126 -93 -177 -93 -82 0 -103 57 -88 240 14 177
57 309 118 364 12 11 48 35 79 53 63 36 104 37 152 4z"/>
<path d="M5080 4593 c-87 -34 -102 -43 -172 -114 -124 -125 -199 -304 -184
-443 23 -219 213 -298 496 -207 186 60 295 151 323 271 9 35 -6 54 -35 47 -18
-5 -28 -18 -37 -49 -33 -108 -75 -153 -176 -188 -105 -36 -203 -20 -247 40
-10 14 -21 46 -24 73 -7 46 -6 49 37 89 24 22 101 79 173 126 149 96 236 178
236 220 0 48 -52 116 -111 146 -79 39 -156 36 -279 -11z m157 -98 c14 -9 31
-32 39 -51 13 -31 13 -39 -2 -70 -9 -19 -35 -51 -58 -70 -47 -41 -148 -99
-188 -109 -29 -8 -27 -13 -48 130 -16 109 -8 127 72 165 51 24 73 29 112 25
27 -2 60 -12 73 -20z"/>
<path d="M5775 4608 c-88 -10 -166 -21 -172 -23 -16 -5 -17 -61 -3 -136 5 -30
14 -103 20 -164 12 -134 30 -317 39 -405 6 -62 7 -65 34 -68 15 -2 52 2 81 8
49 10 55 14 61 41 4 17 4 85 0 152 -6 109 -4 134 18 233 37 162 74 223 159
258 45 19 112 21 126 3 26 -31 23 -63 -13 -132 -27 -52 -32 -71 -23 -76 35
-22 109 83 116 164 5 68 -25 115 -85 137 -39 13 -46 13 -95 -8 -68 -28 -76
-28 -80 5 -2 14 -7 27 -13 29 -5 1 -82 -7 -170 -18z"/>
<path d="M6845 4596 c-8 -19 -15 -42 -15 -51 0 -21 -26 -19 -59 5 -43 30 -111
41 -172 30 -81 -16 -138 -48 -206 -117 -51 -51 -75 -88 -127 -193 -37 -75 -72
-162 -81 -202 -14 -64 -14 -75 0 -123 28 -99 88 -145 188 -145 95 0 204 42
325 126 35 24 69 44 75 44 8 0 17 -26 24 -66 17 -100 49 -134 125 -134 64 0
174 74 219 146 19 31 20 39 9 60 -8 13 -16 24 -20 24 -4 0 -21 -23 -39 -50
-73 -113 -181 -135 -211 -44 -15 45 -7 112 25 220 33 107 116 327 149 392 43
85 41 86 -84 97 -41 4 -83 9 -93 11 -13 4 -21 -4 -32 -30z m-125 -84 c19 -9
40 -28 47 -42 15 -30 16 -109 3 -165 -5 -22 -17 -92 -26 -155 -8 -63 -20 -122
-25 -132 -5 -10 -30 -30 -56 -45 -37 -21 -62 -28 -127 -31 -73 -4 -84 -2 -110
19 -116 91 -72 348 84 493 80 74 144 92 210 58z"/>
<path d="M9010 4588 c-11 -18 -32 -64 -46 -103 -14 -38 -59 -142 -99 -230 -40
-88 -81 -183 -91 -212 -21 -63 -58 -112 -72 -98 -6 6 -20 50 -31 99 -12 49
-46 170 -76 270 -29 100 -61 207 -70 239 -8 31 -20 57 -26 57 -36 0 -339 -106
-339 -118 0 -4 111 -149 245 -322 230 -295 245 -317 241 -350 -8 -68 -198
-469 -306 -644 -70 -115 -75 -98 49 -161 60 -31 136 -73 170 -95 34 -22 61
-38 61 -36 0 37 32 207 75 395 68 298 136 535 282 975 119 362 120 365 70 366
-9 0 -26 -15 -37 -32z"/>
<path d="M6790 3549 c-187 -15 -538 -56 -970 -114 -722 -96 -1013 -132 -1430
-174 -954 -98 -1803 -144 -2898 -158 -293 -3 -535 -10 -538 -14 -6 -10 44 -25
141 -44 96 -18 355 -20 835 -5 804 25 1331 64 2700 200 1166 116 1417 133
1910 133 609 -1 1055 -63 1479 -208 l74 -25 37 30 c42 33 127 124 160 170 l21
30 -27 10 c-69 27 -289 90 -379 110 -244 53 -343 62 -680 65 -176 2 -372 -1
-435 -6z"/>
<path d="M7236 3263 c-2 -10 -17 -62 -32 -115 -15 -54 -24 -101 -20 -105 9
-10 219 -9 270 1 l38 7 -7 92 c-4 51 -9 94 -11 96 -5 5 -191 40 -216 41 -9 0
-19 -8 -22 -17z"/>
</g>
</svg>
