<?xml version="1.0" encoding="utf-8"?>
<!-- Generator: Adobe Illustrator 16.0.0, SVG Export Plug-In . SVG Version: 6.00 Build 0)  -->
<!DOCTYPE svg PUBLIC "-//W3C//DTD SVG 1.1//EN" "http://www.w3.org/Graphics/SVG/1.1/DTD/svg11.dtd">
<svg version="1.1" id="Layer_1" xmlns="http://www.w3.org/2000/svg" xmlns:xlink="http://www.w3.org/1999/xlink" x="0px" y="0px"
	 width="1140px" height="1140px" viewBox="0 0 1140 1140" style="enable-background:new 0 0 1140 1140;" xml:space="preserve">
<style type="text/css">
<![CDATA[
	.st0{fill:#2E2F86;}
	.st1{fill-rule:evenodd;clip-rule:evenodd;fill:#2E2F86;}
	.st2{opacity:0;fill-rule:evenodd;clip-rule:evenodd;fill:#FFFFFF;}
]]>
</style>
<rect class="st2" width="1140" height="1140"/>
<path class="st1" d="M406.3,699.3c0.8,0,1.6,0,2.3,0c6.7-8.9,35-36,48.3-17c7.4,10.6,3.6,28,6,44c0.8,5,2.8,31.1,1.7,33.7
	c-7.3-0.1-14.7-0.2-22-0.3c-0.3-0.2-0.7-0.4-1-0.7c0.8-19.1,14.8-58.2,1-72.7c-13.8-0.1-37.3,22.7-40,33.3
	c-1.6,13.1-3.1,26.2-4.7,39.3c-0.2,0.3-0.4,0.7-0.7,1c-2.8-0.1-5.6-0.2-8.3-0.3c-1.9-34.4-3.8-68.9-5.7-103.3
	c-1.2-6.3-3.2-39.5-1.3-44.3c0.2-0.3,2.8-3.7,3-4c5.9-1.6,24.6-10.8,30-8C412.3,630.1,409,669.2,406.3,699.3z"/>
<path class="st1" d="M329,356c-9-31.4-25.9-87-34.9-114.2c-0.5-2.1-2.4-0.9-3.1-0.8c-0.4,0.3-1.3,0.6-1,2c5,18.5,16.3,78,19,114
	C312.9,355.9,323.9,353.5,329,356z"/>
<path class="st1" d="M746.8,779.2c-0.4-8.4-0.7-11.8-1.1-20.2c6.6-0.1,13.1-0.2,19.7-0.3c23.4-6.3,37.3-18.7,42.7-43.3
	c0.6-2.6,1.8-7.6,1-11.7c-6.9-35.1-47.9-31.8-64.7-9.3c-0.6,0-1.1,0-1.7,0c-2.5-10.3-0.3-20.8-13-20.7c-2.7,1.9-5.4,2.4-7,5.3
	c-0.1,0.9-0.2,1.8-0.3,2.7c0.4,0.4,0.9,0.9,1.3,1.3c0.6,0.7,0,0.2,1,0.7c1.9-1.8,2.9-4.7,6.7-3.7c7.9,4,3.3,25.3,1.7,33.7
	c0,3,0,6,0,9c-3.5,19.5-3.3,35.7-5.9,55.8C731.6,778.4,743.1,778.9,746.8,779.2z M724,812c-0.4,1.6-1.6,6.6-2,8
	c-1.2,5-3.4,10.7-4.7,15.7c5.7,1.5,27.8,1.1,31.7-1c-0.4-8.2-0.6-10.4-1-18.7C741.3,814.4,730,812.5,724,812z M771.3,685.3
	c-3.7,2-7.3,4-11,6c-9.5,7.4-13.3,22.8-14.3,38.7c-0.5,8.2-2.2,20.5,4.3,23.3c6.3,2.8,13.7-1.6,16.7-3.7c11.3-7.9,16.2-21.9,19.3-38
	C789.2,697,785.7,685,771.3,685.3z"/>
<path class="st1" d="M523.3,676.7c13,0,22.9,7.3,24,19c-11.1,17.3-34.1,22.7-45.3,37.7c-0.4,16.5,11.8,20.9,27,16
	c12.9-4.2,15.9-9.8,19.3-23.7c2.9-0.2,3.4-1.2,5.7-1c2.3,6.7-3,13.9-6,17.7c-9.7,12.3-54.1,29.5-69.7,9.7
	c-17.4-22.2,5.2-58.7,21.7-68c5.7-2.2,11.3-4.4,17-6.7C519.1,677.1,521.2,676.9,523.3,676.7z M511.7,688
	c-10.8,6.1-17.5,3.7-13.3,21.3c1.1,4.7,0.4,8.5,2.3,12c0.1,0,0.2,0,0.3,0c7.1-2.2,31.7-14.5,27-25.7
	C525.8,689.9,519.9,687.8,511.7,688z"/>
<path class="st1" d="M594.7,677.3c1.5,0.3,1,0,1.7,1c0.4,1.7-1.1,3-0.7,5.3c5.8-0.7,10.5-6.7,18.3-3.7c13.9,5.4,7.5,25.8-2.3,30.7
	c-1.1-0.4-2.2-0.9-3.3-1.3c3.6-5.9,12.5-15.5,3.3-21.7c-22.4-0.2-25.1,19-28.3,37.7c-1.7,9.6,3,23.6-0.7,31.7
	c-4.9,0.9-11.8,2.8-16.3,1.3c-0.2-7-1.2-16-2.7-22.3c0-2.4,0-4.9,0-7.3c-1.4-8.7-1.5-17.7-2.7-27.3c-0.6-4.9-3.4-16.3-1.3-20
	C571.3,680,583,678.7,594.7,677.3z"/>
<path class="st1" d="M686.3,677.3c7.2,0.8,14.4,1.6,21.7,2.3c0.1,0.2,0.2,0.4,0.3,0.7c-0.9,5.8-4.7,11-6.7,16
	c-4.7,12.3-9.5,24.2-13,37.3c-1.6,6.2-3,17.6,2.3,20.3c9.7,5.5,18.7-9.1,21.3-14c0.3,0,0.7,0,1,0c1.1,1.9,2.3,2.6,2.7,5.3
	c-3.3,7-19.2,23.2-31,16c-5.3-3.3-5.1-10.8-6.3-18.3c-0.9-0.1-1.8-0.2-2.7-0.3c-13.3,12.1-53.5,33.9-58.7-2
	c-0.5-3.8,3.7-16.5,5-19.3c7.2-16.3,16.7-34.6,35.3-39c5-1.2,10.7-1.4,15.3,0.3c3.2,1.2,6.8,5.5,10,4.3c0-3.4,1.2-7.2,2.7-9.3
	C685.9,677.6,686.1,677.4,686.3,677.3z M664.3,687c-2.3,0.8-4.7,1.6-7,2.3c-10.2,5.9-17.7,17.3-20.7,30.3c-2.6,11.4,1,23.7,9,26
	c10.2,2.9,24.6-2.2,27.3-9.7c0.8-6.1,1.6-12.2,2.3-18.3C678.4,704.2,683.2,686.9,664.3,687z"/>
<path class="st1" d="M1109,609c1.5,2.1,1.5,5,0.5,7c-41.6,12.4-97.3,32.5-130.5,45.7c-14.2,5.6-28,12.3-41.8,18.1
	c-5.1,2.1-9.2,6-13.8,6.5c-0.1-0.1-0.1-0.2-0.2-0.3c1.6-9.9-1.8-22.7-8.6-30.1c0.1-0.1,0.2-0.1,0.3-0.2c7.2-0.8,14.4-1.5,21.5-2.3
	c31.2-5.2,73-15.7,65.6-14.5C865.2,265.1,596,245,476,300c-39.5,18.1-63-36-130,21c6.1-22.4-13.4-54.6-47-73
	c107.3-36.8,116.2,28.4,187,6c75-23.7,146.2,45,178,86c41.1,53,89,165,55,313c75-52,204.2-41.9,283-14
	C1037.7,630.4,1099.4,612.2,1109,609z"/>
<path class="st1" d="M903.3,678c2.6,0,4.7,0.3,6,1.7c-11.5,33.6-23.5,69.1-33.3,105c-4,14.7-6.8,29.8-10.3,44.3
	c-2.7,11.2-2.8,16.6-3.7,23c-9.4-6.7-22.6-13.8-34-19c0-0.1,0-0.2,0-0.3c3.7-6.2,7.3-12.4,11-18.7c6.6-12.5,13.1-24.5,18.7-38
	c1.6-4,8.6-16.8,7.3-21.3c-16.4-21.2-32.9-42.4-49.3-63.7c2.5-2.7,29.3-11.1,34.7-12.3c2.8,4.1,3.1,9.9,4.7,15.3
	c3.4,11.4,7.5,24,10.7,35.3c1.7,6,2.1,12,4.7,17.3c5-1.3,7.7-13.7,9.7-18.3c3.9-8.2,7.8-16.4,11.7-24.7
	C895.5,695.4,897.6,684.5,903.3,678z"/>
<path class="st1" d="M831,803c-29.1-10.7-56.1-16.3-84.2-18.5c-118.7-9-254.8,45-635.8,45.5c-38-0.5,1,6,7,7
	c294.4,0.9,478.5-54.2,630-27.2c20.9,3.7,41.1,9,61,16.2C816.9,820.6,823.9,813.5,831,803z"/>
<path class="st1" d="M95.5,576.2c18.5,55.6,47,140,47,140s157.5-8.9,172.8,78.6c0.7,0.3,2.2,0.4,2.2,0.4l4-1c0,0,0.6-1.4,0.5-1.5
	c-13.6-90.6-166.5-88.5-166.5-88.5s-21.7-61.9-19-119.6c49-1.9,109.1-4,109.1-4s-0.3-2.9-0.5-4.3c-0.2-0.3-0.3-0.6-0.5-0.9
	c-19.1,2.7-102.8-5.1-138.1-8.2C102.9,567.3,97.6,570,95.5,576.2z"/>
<path class="st1" d="M361,549c-0.3,5.3-1.9,23.4-2,29c37.5-10.5,199.8-55.1,234-63.7c0.1,0.3,0.2,0.7,0.3,1
	c-0.1,1.4-0.3,4.3-0.3,4.3S403.4,580.5,358,596c-1.4,27.3-5.6,136.7-7,164c-0.6,0.4-1.1,0.9-1.7,1.3c-1.8-0.1-3.6-0.2-5.3-0.3
	c-0.7-0.4-1.3-0.9-2-1.3c-2.7-56.4-12.5-126.3-16-156.7c-24,7.1-110,36.2-155,55c0-0.1-7-21.9-7-22c0.1-1-0.8-6,4.7-8.3
	c0.2-0.4,0.4-0.9,0.7-1.3C212.8,614.2,283,596.5,324,587c-1.1-7.4-3.7-19.3-4-26C320.7,555,356.7,543.7,361,549z"/>
<path class="st0" d="M250.4,394.1h-96.3c-2.4,0-3.6,1.2-3.6,3.6v6.1c0,2.4,1.2,3.6,3.6,3.6h24.5v109.1c0,2.4,1.2,3.6,3.6,3.6h40.1
	c2.4,0,3.6-1.2,3.6-3.6V407.4h24.5c2.4,0,3.6-1.2,3.6-3.6v-6.1C254,395.3,252.8,394.1,250.4,394.1L250.4,394.1z"/>
<path class="st0" d="M353.1,470.4c8.6-1.9,14.7-5.7,18.1-11.4c3.4-5.7,5.1-14.2,5.1-25.6c0-10.3-1.4-18.3-4-23.9
	c-2.7-5.6-7.3-9.5-13.8-11.9c-6.5-2.3-15.7-3.5-27.5-3.5h-5.2H263c-2.4,0-3.6,1.2-3.6,3.6v118.8c0,2.4,1.2,3.6,3.6,3.6h40.1
	c2.4,0,3.6-1.2,3.6-3.6v-43.6l27.4,44.8c0.8,1.6,2.3,2.3,4.3,2.3h39.4c1,0,1.7-0.2,2.3-0.6c0.5-0.4,0.8-0.9,0.8-1.5
	c0-0.8-0.2-1.6-0.7-2.2L353.1,470.4z M326.1,433.5c0,6.8-0.4,12.1-1.2,15.8c-0.8,3.7-2.1,6.3-4,7.8c-1.9,1.6-4.7,2.3-8.3,2.3h-5.9
	v-52h5.9c3.6,0,6.4,0.8,8.3,2.3c1.9,1.6,3.3,4.2,4,7.8C325.7,421.3,326.1,426.6,326.1,433.5L326.1,433.5z"/>
<path class="st0" d="M450,522.3c16.7,0,29.5-2,38.6-5.9c9.1-3.9,15.5-10.5,19.4-19.8c3.8-9.3,5.8-22.5,5.8-39.5
	c0-17-1.9-30.2-5.8-39.4c-3.8-9.2-10.3-15.8-19.4-19.7c-9.1-3.9-21.9-5.9-38.6-5.9c-16.7,0-29.6,2-38.6,5.9
	c-9.1,3.9-15.5,10.5-19.4,19.7c-3.8,9.2-5.8,22.4-5.8,39.4c0,17,1.9,30.2,5.8,39.5c3.8,9.3,10.3,15.9,19.4,19.8
	C420.4,520.3,433.3,522.3,450,522.3L450,522.3z M450,508.9c-3.5,0-6.2-1.5-8.1-4.6c-1.9-3.1-3.3-8.3-4-15.7
	c-0.8-7.4-1.2-17.9-1.2-31.6c0-13.6,0.4-24,1.2-31.4c0.8-7.4,2.1-12.6,4-15.7c1.9-3.1,4.6-4.6,8.1-4.6c3.5,0,6.2,1.5,8.1,4.6
	c1.9,3.1,3.3,8.3,4.1,15.7c0.8,7.4,1.3,17.9,1.3,31.4c0,13.6-0.4,24-1.3,31.4c-0.8,7.4-2.2,12.6-4.1,15.8
	C456.2,507.4,453.5,508.9,450,508.9L450,508.9z"/>
</svg>
